PathFileType	4	(X/Y/Z)	Patient4_TMGait_0pt3_02_right_25.trc.trc
DataRate	CameraRate	NumFrames	NumMarkers	Units	OrigDataRate	OrigDataStartFrame	OrigNumFrames
51.470588235294	51.470588235294	4	33	mm	51.470588235294	1	       141
Frame#	Time	Sacral			L.Shoulder			Chest			R.Shoulder			Neck			R.ASIS			L.ASIS			R.Thigh.Superior			R.Thigh.Lateral			R.Thigh.Inferior			R.Patella			L.Thigh.Superior			L.Thigh.Lateral			L.Thigh.Inferior			L.Patella			L.Shank.Superior			L.Shank.Lateral			L.Shank.Inferior			R.Shank.Superior			R.Shank.Lateral			R.Shank.Inferior			R.Heel			R.Midfoot.Superior			R.Midfoot.Lateral			R.Toe			L.Heel			L.Midfoot.Lateral			L.Midfoot.Superior			L.Toe			L.Elbow			L.Wrist			R.Elbow			R.Wrist			
		X1	Y1	Z1	X2	Y2	Z2	X3	Y3	Z3	X4	Y4	Z4	X5	Y5	Z5	X6	Y6	Z6	X7	Y7	Z7	X8	Y8	Z8	X9	Y9	Z9	X10	Y10	Z10	X11	Y11	Z11	X12	Y12	Z12	X13	Y13	Z13	X14	Y14	Z14	X15	Y15	Z15	X16	Y16	Z16	X17	Y17	Z17	X18	Y18	Z18	X19	Y19	Z19	X20	Y20	Z20	X21	Y21	Z21	X22	Y22	Z22	X23	Y23	Z23	X24	Y24	Z24	X25	Y25	Z25	X26	Y26	Z26	X27	Y27	Z27	X28	Y28	Z28	X29	Y29	Z29	X30	Y30	Z30	X31	Y31	Z31	X32	Y32	Z32	X33	Y33	Z33	

1	48.050000000000	760.145350514850	997.067950875308	435.900458745018	912.165180145908	1418.564440386430	223.564611247089	1030.177182640448	1358.767290213263	377.387950997701	965.787335708748	1441.303069353193	554.561305385135	912.662233493914	1489.944037072217	377.313901058274	996.940504146862	937.003154747465	535.525044135744	965.489032402556	955.635198710896	263.394108375945	1055.068501313337	743.556365237976	509.859315947686	994.834051961673	628.908773804441	583.609888548674	1075.818289821843	576.731600329283	502.632555346794	1074.738971618848	463.949386611982	527.772557377978	1032.917410023040	753.941557605878	302.669382456319	957.010678954298	626.567182179254	250.679153340491	1048.149456231541	559.426543116123	316.502036318676	1053.580353451180	487.453898542964	327.544615119559	1022.642923137184	412.399252699433	324.006267725580	929.590365852343	299.575166763168	274.617586184327	972.833462809164	189.932933218648	352.465441181050	991.466349386567	399.163284925403	537.922396676138	866.744170344643	372.948000585667	598.458009473179	844.165781602234	263.288963567759	554.410410555485	639.332128785934	222.225761636089	521.150948378358	799.059740633183	148.740122581142	580.352694889056	688.414424604601	166.567649250242	604.550794284310	845.534755555041	33.298716969599	620.862251715213	837.629141185265	38.278750805276	396.082271455753	913.233638818812	35.293483634697	316.502054230163	995.949886439492	96.388977141926	345.357366107009	1124.338776060323	46.953934172570	319.691368777900	928.825853354413	1062.145644934245	113.872500801874	1013.360739770845	815.381120925372	130.091640250797	1056.821883913681	1103.044268401618	677.687492092446	1292.618221385759	993.505201351753	650.594728866395	
2	48.069428571429	759.084398888662	994.233239882942	431.862012613871	913.860706662604	1417.459543386367	222.870324120808	1029.334385315177	1357.057681283087	378.246471368771	961.908503461014	1437.898190036643	554.946321857645	911.947120783614	1488.080324954381	377.162822409816	995.576926497183	935.570513381803	533.740915404319	966.450161024485	953.772077409730	261.283713466629	1057.505995917937	744.585114325880	507.388544513178	999.946168223208	629.205803099728	581.273280654675	1081.596860423338	578.509591381623	499.853300195843	1083.109259117779	465.578095913092	525.067525327527	1034.522387649995	752.288848919536	301.042839300453	959.314380018573	624.381734062156	249.391195778270	1050.464973930286	557.685432948727	316.114475183303	1056.137391750403	485.355759583507	327.461853926345	1023.678591919205	410.013272366127	324.199169778049	929.005853014844	298.736219388148	274.621889709556	969.369774037509	188.595203874554	352.745213055100	1000.254667947193	399.985250461492	535.996401583501	875.781380854493	373.186580677558	597.086087875797	853.690772975884	263.169586896732	553.447332226512	648.534586589903	219.716552825978	521.908970268860	809.680392038186	148.315733625038	578.689033121694	699.199580642642	164.283660512812	604.472960941707	858.928716023928	33.701342971462	618.619037463184	831.769867709256	38.401921404099	396.050890177955	907.387536489841	35.372400124290	316.543439931920	990.299714540765	96.148095801946	345.600875966663	1118.640978926925	46.291802278605	319.656139526725	941.587107637119	1063.156291076577	110.749407382755	1037.918872568743	821.745479233571	127.511624038362	1039.032038962216	1096.369124246845	677.895437537316	1261.290259542897	967.017688753314	655.777881722146	
3	48.088857142857	758.000146819478	991.491763843787	427.738070710741	915.696616794987	1416.420938609829	222.222488419266	1028.504398023214	1355.399255360165	379.215559407729	957.904159565611	1434.534195653691	555.370607850230	911.261232677582	1486.283635391965	377.044164301032	994.126842433805	934.223976340715	532.078334550026	967.520750093808	951.973254664486	259.257560425981	1059.864422542335	745.715140005099	504.946251279293	1005.075250735588	629.641881187169	578.999764623614	1087.276242840156	580.412076901203	497.034286303180	1091.473843701323	467.410661785998	522.353390992382	1036.064817396887	750.605090062240	299.545376190908	961.509814442189	622.208023080298	248.180125813689	1052.575357149840	555.917401268527	315.856852287957	1058.435081713368	483.237077559057	327.517554644646	1024.481485723085	407.634056432177	324.483485135151	928.236066833353	297.891369492793	274.666053352113	965.719113703312	187.262740042734	353.058991908834	1009.210065094246	400.871754718295	534.106697290816	885.107996678881	373.106851802515	595.796846643999	863.836946581545	262.669806871529	552.562478586261	658.525479213070	216.093484930805	522.813797498410	821.348251934033	147.503297858499	577.220646662992	710.995911829697	161.167959709571	604.558030751622	873.748182700699	33.939185212545	616.530930504474	825.745872919733	38.519928637890	396.018088327150	901.386375285851	35.449354814907	316.581514788054	984.489757950155	95.907758510693	345.849720224337	1112.783325424304	45.632728474941	319.628797209034	954.546136428364	1064.366744059150	107.689359641081	1062.934688785099	828.660831358840	125.086575602229	1020.723169663880	1089.826085398913	678.043072423899	1228.407220341767	940.634812160808	661.012009523459	
4	48.108285714286	756.922435142427	989.008429859114	423.625543593733	917.697236203090	1415.543961966888	221.680744560865	1027.726543743193	1353.895606293068	380.333182856422	953.847962621714	1431.371955773024	555.846971315993	910.648634246593	1484.669522115088	376.990138419572	992.599151492890	933.076420507569	530.649450079068	968.698936063257	950.339820838829	257.438519889414	1062.008691079046	746.975199848436	502.652853374262	1010.002519469182	630.279079409192	576.902924628771	1092.594697731221	582.447896686112	494.297409578300	1099.524280513607	469.510908165345	519.753223969126	1037.438542057748	748.939517029751	298.285597451776	963.425267380718	620.145645048833	247.117160503545	1054.260830398075	554.175816442438	315.785574346658	1060.216421728941	481.173610886609	327.759256885916	1024.859729934600	405.360864567704	324.878887468773	927.168454996586	297.074998087177	274.759930977305	961.879954543468	185.992542549361	353.406596560795	1018.111962402064	401.850163576948	532.352301288167	894.580947877979	372.567356490685	594.687633465611	874.622490942698	261.655624368922	551.828273046242	669.477710647527	210.953363924343	523.895872757853	834.253012553275	146.172580887040	576.059964311431	724.012404206098	156.945866020522	604.864170004438	890.262160637833	34.004720434557	614.712185814139	819.658295830359	38.626529980247	395.984319043388	895.332625161403	35.521313823706	316.613623794058	978.613452568314	95.678066558583	346.095454994039	1106.860936707782	45.002966701492	319.612635382401	967.392936764876	1065.869131431663	104.825034095233	1087.831565739985	836.230982705273	122.983745780739	1002.190142504803	1083.760237911437	678.102858622090	1194.271300391353	915.385906346315	666.130647407066	
